<svg id="smile_1_" data-name="smile (1)" xmlns="http://www.w3.org/2000/svg" width="55" height="55" viewBox="0 0 55 55">
  <g id="Group_9" data-name="Group 9">
    <g id="Group_8" data-name="Group 8">
      <path id="Path_4" data-name="Path 4" d="M127.515,224.3a1.2,1.2,0,0,0-1.688.093,13.3,13.3,0,0,1-19.74,0,1.2,1.2,0,1,0-1.782,1.6,15.693,15.693,0,0,0,23.3,0A1.2,1.2,0,0,0,127.515,224.3Z" transform="translate(-88.456 -190.521)" fill="#d1ed5d"/>
      <path id="Path_5" data-name="Path 5" d="M27.5,0A27.5,27.5,0,1,0,55,27.5,27.532,27.532,0,0,0,27.5,0Zm0,52.609A25.109,25.109,0,1,1,52.609,27.5,25.136,25.136,0,0,1,27.5,52.609Z" fill="#d1ed5d"/>
      <path id="Path_6" data-name="Path 6" d="M213.978,128A5.985,5.985,0,0,0,208,133.978a1.2,1.2,0,0,0,2.391,0,3.587,3.587,0,1,1,7.174,0,1.2,1.2,0,0,0,2.391,0A5.985,5.985,0,0,0,213.978,128Z" transform="translate(-176.913 -108.87)" fill="#d1ed5d"/>
      <path id="Path_7" data-name="Path 7" d="M89.565,133.978a1.2,1.2,0,0,0,2.391,0,5.978,5.978,0,1,0-11.957,0,1.2,1.2,0,1,0,2.391,0,3.587,3.587,0,0,1,7.174,0Z" transform="translate(-68.043 -108.87)" fill="#d1ed5d"/>
    </g>
  </g>
</svg>
